<?xml version='1.0' encoding='utf-8'?>
<svg xmlns="http://www.w3.org/2000/svg" version="1.1" id="Layer_1" x="0px" y="0px" viewBox="0 0 30 30" xml:space="preserve" width="24" height="24">
<defs><linearGradient id="oxygenGrad" x1="0" y1="0" x2="0" y2="1"><stop offset="0%" stop-color="#b7c0ff" /><stop offset="55%" stop-color="#7c8cff" /><stop offset="100%" stop-color="#515ba6" /></linearGradient><filter id="oxygenShadow" x="-20%" y="-20%" width="140%" height="140%"><feDropShadow dx="0" dy="1" stdDeviation="0.6" flood-color="#000000" flood-opacity="0.28" /></filter></defs><path d="M3.74,14.44c0,2.04,0.5,3.93,1.51,5.65s2.37,3.1,4.1,4.1s3.61,1.51,5.65,1.51c-2.07-1.01-3.59-2.45-4.56-4.33  S9,17.19,9,14.44c0-2.53,0.56-4.78,1.69-6.75s2.57-3.47,4.31-4.5c-2.04,0-3.93,0.5-5.65,1.51s-3.1,2.37-4.1,4.09  S3.74,12.4,3.74,14.44z" fill="url(#oxygenGrad)" stroke="#444d8c" stroke-width="0.6" filter="url(#oxygenShadow)" />
</svg>