<?xml version='1.0' encoding='utf-8'?>
<svg xmlns="http://www.w3.org/2000/svg" version="1.1" id="Layer_1" x="0px" y="0px" viewBox="0 0 30 30" xml:space="preserve" width="24" height="24">
<defs><linearGradient id="oxygenGrad" x1="0" y1="0" x2="0" y2="1"><stop offset="0%" stop-color="#b7c0ff" /><stop offset="55%" stop-color="#7c8cff" /><stop offset="100%" stop-color="#515ba6" /></linearGradient><filter id="oxygenShadow" x="-20%" y="-20%" width="140%" height="140%"><feDropShadow dx="0" dy="1" stdDeviation="0.6" flood-color="#000000" flood-opacity="0.28" /></filter></defs><path d="M3.74,14.47c0,1.52,0.3,2.98,0.89,4.37s1.39,2.58,2.4,3.59s2.2,1.8,3.59,2.4s2.84,0.89,4.37,0.89  c2.89-2.39,4.34-6.14,4.34-11.24c0-2.34-0.41-4.47-1.22-6.36s-1.85-3.52-3.11-4.87c-2.03,0-3.91,0.5-5.64,1.51S6.25,7.12,5.24,8.84  S3.74,12.44,3.74,14.47z" fill="url(#oxygenGrad)" stroke="#444d8c" stroke-width="0.6" filter="url(#oxygenShadow)" />
</svg>