<?xml version='1.0' encoding='utf-8'?>
<svg xmlns="http://www.w3.org/2000/svg" version="1.1" id="Layer_1" x="0px" y="0px" viewBox="0 0 30 30" xml:space="preserve" width="24" height="24">
<defs><linearGradient id="oxygenGrad" x1="0" y1="0" x2="0" y2="1"><stop offset="0%" stop-color="#b7c0ff" /><stop offset="55%" stop-color="#7c8cff" /><stop offset="100%" stop-color="#515ba6" /></linearGradient><filter id="oxygenShadow" x="-20%" y="-20%" width="140%" height="140%"><feDropShadow dx="0" dy="1" stdDeviation="0.6" flood-color="#000000" flood-opacity="0.28" /></filter></defs><path d="M3.74,14.49c0,1.22,0.19,2.4,0.56,3.54s0.91,2.17,1.6,3.09s1.5,1.72,2.42,2.42s1.95,1.23,3.09,1.6s2.32,0.56,3.54,0.56  c4.33-1.73,6.49-5.47,6.49-11.22c0-1.39-0.18-2.7-0.54-3.93s-0.85-2.31-1.47-3.23s-1.31-1.71-2.06-2.39s-1.56-1.23-2.42-1.66  c-2.03,0-3.91,0.5-5.63,1.5S6.25,7.14,5.24,8.86S3.74,12.46,3.74,14.49z" fill="url(#oxygenGrad)" stroke="#444d8c" stroke-width="0.6" filter="url(#oxygenShadow)" />
</svg>