<?xml version='1.0' encoding='utf-8'?>
<svg xmlns="http://www.w3.org/2000/svg" version="1.1" id="Layer_1" x="0px" y="0px" viewBox="0 0 30 30" xml:space="preserve" width="16" height="16">
<defs><linearGradient id="oxygenGrad" x1="0" y1="0" x2="0" y2="1"><stop offset="0%" stop-color="#b7c0ff" /><stop offset="55%" stop-color="#7c8cff" /><stop offset="100%" stop-color="#515ba6" /></linearGradient><filter id="oxygenShadow" x="-20%" y="-20%" width="140%" height="140%"><feDropShadow dx="0" dy="1" stdDeviation="0.6" flood-color="#000000" flood-opacity="0.28" /></filter></defs><path d="M10.73,14.43c0,1.19,0.07,2.29,0.2,3.3s0.35,2,0.67,2.99s0.76,1.9,1.33,2.75s1.27,1.59,2.09,2.25c1.53,0,2.99-0.3,4.38-0.89  s2.58-1.4,3.59-2.4s1.81-2.2,2.4-3.6s0.89-2.85,0.89-4.39c0-2.04-0.5-3.93-1.51-5.65s-2.37-3.1-4.1-4.1s-3.61-1.51-5.65-1.51  c-1.35,1.3-2.4,2.94-3.16,4.93S10.73,12.19,10.73,14.43z" fill="url(#oxygenGrad)" stroke="#444d8c" stroke-width="0.6" filter="url(#oxygenShadow)" />
</svg>