<?xml version='1.0' encoding='utf-8'?>
<svg xmlns="http://www.w3.org/2000/svg" version="1.1" id="Layer_1" x="0px" y="0px" viewBox="0 0 30 30" xml:space="preserve" width="22" height="22">
<defs><linearGradient id="oxygenGrad" x1="0" y1="0" x2="0" y2="1"><stop offset="0%" stop-color="#b7c0ff" /><stop offset="55%" stop-color="#7c8cff" /><stop offset="100%" stop-color="#515ba6" /></linearGradient><filter id="oxygenShadow" x="-20%" y="-20%" width="140%" height="140%"><feDropShadow dx="0" dy="1" stdDeviation="0.6" flood-color="#000000" flood-opacity="0.28" /></filter></defs><path d="M8.58,14.43c0,1.03,0.06,1.97,0.18,2.83s0.32,1.73,0.62,2.59s0.69,1.65,1.16,2.34s1.1,1.35,1.85,1.96s1.63,1.12,2.63,1.55  c1.53,0,2.99-0.3,4.38-0.89s2.58-1.4,3.59-2.4s1.81-2.2,2.4-3.6s0.89-2.85,0.89-4.39c0-2.04-0.5-3.93-1.51-5.65s-2.37-3.1-4.1-4.1  s-3.61-1.51-5.65-1.51c-1.99,1-3.56,2.51-4.72,4.55S8.58,11.99,8.58,14.43z" fill="url(#oxygenGrad)" stroke="#444d8c" stroke-width="0.6" filter="url(#oxygenShadow)" />
</svg>